<svg xmlns="http://www.w3.org/2000/svg" width="25" height="23" viewBox="0 0 25 23"><defs><linearGradient id="zvp3a" x1="12" x2="13" y1="5" y2="0" gradientUnits="userSpaceOnUse"><stop offset="0" stop-color="#f60"/><stop offset="1" stop-color="#ff8000"/></linearGradient><linearGradient id="zvp3b" x1="12" x2="13" y1="14" y2="9" gradientUnits="userSpaceOnUse"><stop offset="0" stop-color="#f60"/><stop offset="1" stop-color="#ff8000"/></linearGradient><linearGradient id="zvp3c" x1="12" x2="13" y1="23" y2="18" gradientUnits="userSpaceOnUse"><stop offset="0" stop-color="#f60"/><stop offset="1" stop-color="#ff8000"/></linearGradient></defs><g><g><path fill="#4e9039" d="M3 0h19a3 3 0 0 1 3 3v2H0V3a3 3 0 0 1 3-3z"/><path fill="url(#zvp3a)" d="M3 0h19a3 3 0 0 1 3 3v2H0V3a3 3 0 0 1 3-3z"/></g><g><path fill="#4e9039" d="M0 9h25v5H0z"/><path fill="url(#zvp3b)" d="M0 9h25v5H0z"/></g><g><path fill="#4e9039" d="M0 18h25v2a3 3 0 0 1-3 3H3a3 3 0 0 1-3-3z"/><path fill="url(#zvp3c)" d="M0 18h25v2a3 3 0 0 1-3 3H3a3 3 0 0 1-3-3z"/></g></g></svg>