<svg xmlns="http://www.w3.org/2000/svg" width="10" height="13" viewBox="0 0 10 13">
    <defs>
        <linearGradient id="j9kba" x1="10" x2="0" y1="11" y2="2" gradientUnits="userSpaceOnUse">
            <stop offset="0" stop-color="#3990c9"/>
            <stop offset="1" stop-color="#377ebb"/>
        </linearGradient>
    </defs>
    <g>
        <g>
            <path fill="#e01822"
                  d="M.5 0h1.3a.5.5 0 0 1 .5.5v1.158a.5.5 0 0 1-.5.5H.5a.5.5 0 0 1-.5-.5V.5A.5.5 0 0 1 .5 0zm3.85 0h1.3a.5.5 0 0 1 .5.5v1.158a.5.5 0 0 1-.5.5h-1.3a.5.5 0 0 1-.5-.5V.5a.5.5 0 0 1 .5-.5zM8.2 0h1.3a.5.5 0 0 1 .5.5v1.158a.5.5 0 0 1-.5.5H8.2a.5.5 0 0 1-.5-.5V.5a.5.5 0 0 1 .5-.5zm0 3.614h1.3a.5.5 0 0 1 .5.5v1.158a.5.5 0 0 1-.5.5H8.2a.5.5 0 0 1-.5-.5V4.114a.5.5 0 0 1 .5-.5zm-3.85 0h1.3a.5.5 0 0 1 .5.5v1.158a.5.5 0 0 1-.5.5h-1.3a.5.5 0 0 1-.5-.5V4.114a.5.5 0 0 1 .5-.5zm-3.85 0h1.3a.5.5 0 0 1 .5.5v1.158a.5.5 0 0 1-.5.5H.5a.5.5 0 0 1-.5-.5V4.114a.5.5 0 0 1 .5-.5zm0 3.613h1.3a.5.5 0 0 1 .5.5v1.159a.5.5 0 0 1-.5.5H.5a.5.5 0 0 1-.5-.5V7.728a.5.5 0 0 1 .5-.5zm3.85 0h1.3a.5.5 0 0 1 .5.5v1.159a.5.5 0 0 1-.5.5h-1.3a.5.5 0 0 1-.5-.5V7.728a.5.5 0 0 1 .5-.5zm0 3.615h1.3a.5.5 0 0 1 .5.5V12.5a.5.5 0 0 1-.5.5h-1.3a.5.5 0 0 1-.5-.5v-1.158a.5.5 0 0 1 .5-.5zM8.2 7.227h1.3a.5.5 0 0 1 .5.5v1.159a.5.5 0 0 1-.5.5H8.2a.5.5 0 0 1-.5-.5V7.728a.5.5 0 0 1 .5-.5z"/>
            <path fill="url(#j9kba)"
                  d="M.5 0h1.3a.5.5 0 0 1 .5.5v1.158a.5.5 0 0 1-.5.5H.5a.5.5 0 0 1-.5-.5V.5A.5.5 0 0 1 .5 0zm3.85 0h1.3a.5.5 0 0 1 .5.5v1.158a.5.5 0 0 1-.5.5h-1.3a.5.5 0 0 1-.5-.5V.5a.5.5 0 0 1 .5-.5zM8.2 0h1.3a.5.5 0 0 1 .5.5v1.158a.5.5 0 0 1-.5.5H8.2a.5.5 0 0 1-.5-.5V.5a.5.5 0 0 1 .5-.5zm0 3.614h1.3a.5.5 0 0 1 .5.5v1.158a.5.5 0 0 1-.5.5H8.2a.5.5 0 0 1-.5-.5V4.114a.5.5 0 0 1 .5-.5zm-3.85 0h1.3a.5.5 0 0 1 .5.5v1.158a.5.5 0 0 1-.5.5h-1.3a.5.5 0 0 1-.5-.5V4.114a.5.5 0 0 1 .5-.5zm-3.85 0h1.3a.5.5 0 0 1 .5.5v1.158a.5.5 0 0 1-.5.5H.5a.5.5 0 0 1-.5-.5V4.114a.5.5 0 0 1 .5-.5zm0 3.613h1.3a.5.5 0 0 1 .5.5v1.159a.5.5 0 0 1-.5.5H.5a.5.5 0 0 1-.5-.5V7.728a.5.5 0 0 1 .5-.5zm3.85 0h1.3a.5.5 0 0 1 .5.5v1.159a.5.5 0 0 1-.5.5h-1.3a.5.5 0 0 1-.5-.5V7.728a.5.5 0 0 1 .5-.5zm0 3.615h1.3a.5.5 0 0 1 .5.5V12.5a.5.5 0 0 1-.5.5h-1.3a.5.5 0 0 1-.5-.5v-1.158a.5.5 0 0 1 .5-.5zM8.2 7.227h1.3a.5.5 0 0 1 .5.5v1.159a.5.5 0 0 1-.5.5H8.2a.5.5 0 0 1-.5-.5V7.728a.5.5 0 0 1 .5-.5z"/>
        </g>
    </g>
</svg>