<svg height="512pt" viewBox="0 -80 512 512" width="512pt" xmlns="http://www.w3.org/2000/svg"><path d="m481.941406 175.34375v38.40625h-135.4375c2.769532-12.460938 4.179688-25.3125 4.179688-38.40625 0-96.683594-78.65625-175.34375-175.339844-175.34375s-175.34375 78.660156-175.34375 175.34375c0 37.792969 11.738281 73.558594 34.003906 103.789062v71.550782l477.996094.4375v-175.777344zm-421.070312 89.46875c-20.15625-25.753906-30.8125-56.691406-30.8125-89.46875 0-80.109375 65.175781-145.285156 145.285156-145.285156s145.28125 65.175781 145.28125 145.285156c0 32.777344-10.652344 63.714844-30.808594 89.464844l-3.195312 4.082031v51.734375h-222.558594v-51.734375zm421.070312 56.25h-34.003906v-25.152344h-30.058594v25.152344h-31.792968v-44.855469h-30.058594v44.855469h-39.347656v-41.929688c8.164062-11.085937 14.910156-22.921874 20.183593-35.324218h145.078125zm0 0"/><path d="m175.34375 275.871094c55.429688 0 100.527344-45.09375 100.527344-100.527344s-45.097656-100.53125-100.527344-100.53125c-55.433594 0-100.53125 45.097656-100.53125 100.53125 0 55.429688 45.097656 100.527344 100.53125 100.527344zm0-30.058594c-33.699219 0-61.933594-23.78125-68.839844-55.441406h137.679688c-6.90625 31.660156-35.140625 55.441406-68.839844 55.441406zm0-140.941406c33.699219 0 61.933594 23.78125 68.839844 55.441406h-137.679688c6.90625-31.660156 35.140625-55.441406 68.839844-55.441406zm0 0"/></svg>