<?xml version="1.0" encoding="utf-8"?><svg xmlns="http://www.w3.org/2000/svg" xmlns:xlink="http://www.w3.org/1999/xlink"><symbol viewBox="0 0 21 21" id="close" xmlns="http://www.w3.org/2000/svg"><path d="M3.429-.107l17.677 17.678-3.535 3.535L-.107 3.43z"/><path d="M3.429-.107l17.677 17.678-3.535 3.535L-.107 3.43z"/><path d="M-.107 17.571L17.571-.107l3.535 3.536L3.43 21.107z"/><path d="M-.107 17.571L17.571-.107l3.535 3.536L3.43 21.107z"/></symbol><symbol viewBox="0 0 490.2 490.2" id="email" xmlns="http://www.w3.org/2000/svg"><path d="M420.95 61.8C376.25 20.6 320.65 0 254.25 0c-69.8 0-129.3 23.4-178.4 70.3s-73.7 105.2-73.7 175c0 66.9 23.4 124.4 70.1 172.6 46.9 48.2 109.9 72.3 189.2 72.3 47.8 0 94.7-9.8 140.7-29.5 15-6.4 22.3-23.6 16.2-38.7-6.3-15.6-24.1-22.8-39.6-16.2-40 17.2-79.2 25.8-117.4 25.8-60.8 0-107.9-18.5-141.3-55.6-33.3-37-50-80.5-50-130.4 0-54.2 17.9-99.4 53.6-135.7 35.6-36.2 79.5-54.4 131.5-54.4 47.9 0 88.4 14.9 121.4 44.7s49.5 67.3 49.5 112.5c0 30.9-7.6 56.7-22.7 77.2-15.1 20.6-30.8 30.8-47.1 30.8-8.8 0-13.2-4.7-13.2-14.2 0-7.7.6-16.7 1.7-27.1l18.6-152.1h-64l-4.1 14.9c-16.3-13.3-34.2-20-53.6-20-30.8 0-57.2 12.3-79.1 36.8-22 24.5-32.9 56.1-32.9 94.7 0 37.7 9.7 68.2 29.2 91.3 19.5 23.2 42.9 34.7 70.3 34.7 24.5 0 45.4-10.3 62.8-30.8 13.1 19.7 32.4 29.5 57.9 29.5 37.5 0 69.9-16.3 97.2-49 27.3-32.6 41-72 41-118.1 0-58.4-22.3-108.3-67.1-149.5zm-147.4 230.1c-11.3 15.2-24.8 22.9-40.5 22.9-10.7 0-19.3-5.6-25.8-16.8-6.6-11.2-9.9-25.1-9.9-41.8 0-20.6 4.6-37.2 13.8-49.8s20.6-19 34.2-19c11.8 0 22.3 4.7 31.5 14.2s13.8 22.1 13.8 37.9c-.1 19.7-5.8 37.1-17.1 52.4z"/></symbol><symbol viewBox="0 0 430.113 430.114" id="fb" xmlns="http://www.w3.org/2000/svg"><path d="M158.081 83.3v59.218h-43.385v72.412h43.385v215.183h89.122V214.936h59.805s5.601-34.721 8.316-72.685H247.54V92.74c0-7.4 9.717-17.354 19.321-17.354h48.557V.001h-66.021C155.878-.004 158.081 72.48 158.081 83.3z"/></symbol><symbol viewBox="0 0 184.751 184.751" id="hexagon" xmlns="http://www.w3.org/2000/svg"><path d="M0 92.375l46.188-80h92.378l46.185 80-46.185 80H46.188L0 92.375z"/></symbol><symbol viewBox="0 0 510 510" id="insta" xmlns="http://www.w3.org/2000/svg"><path d="M459 0H51C22.95 0 0 22.95 0 51v408c0 28.05 22.95 51 51 51h408c28.05 0 51-22.95 51-51V51c0-28.05-22.95-51-51-51zM255 153c56.1 0 102 45.9 102 102s-45.9 102-102 102-102-45.9-102-102 45.9-102 102-102zM63.75 459C56.1 459 51 453.9 51 446.25V229.5h53.55C102 237.15 102 247.35 102 255c0 84.15 68.85 153 153 153s153-68.85 153-153c0-7.65 0-17.85-2.55-25.5H459v216.75c0 7.65-5.1 12.75-12.75 12.75H63.75zM459 114.75c0 7.65-5.1 12.75-12.75 12.75h-51c-7.65 0-12.75-5.1-12.75-12.75v-51c0-7.65 5.1-12.75 12.75-12.75h51C453.9 51 459 56.1 459 63.75v51z"/></symbol><symbol viewBox="0 0 284.935 284.936" id="left" xmlns="http://www.w3.org/2000/svg"><path d="M110.488 142.468L222.694 30.264c1.902-1.903 2.854-4.093 2.854-6.567s-.951-4.664-2.854-6.563L208.417 2.857C206.513.955 204.324 0 201.856 0c-2.475 0-4.664.955-6.567 2.857L62.24 135.9c-1.903 1.903-2.852 4.093-2.852 6.567 0 2.475.949 4.664 2.852 6.567l133.042 133.043c1.906 1.906 4.097 2.857 6.571 2.857 2.471 0 4.66-.951 6.563-2.857l14.277-14.267c1.902-1.903 2.851-4.094 2.851-6.57 0-2.472-.948-4.661-2.851-6.564L110.488 142.468z"/></symbol><symbol viewBox="0 0 25 23" id="menu" xmlns="http://www.w3.org/2000/svg"><path d="M3 0h19a3 3 0 0 1 3 3v2H0V3a3 3 0 0 1 3-3z"/><path d="M3 0h19a3 3 0 0 1 3 3v2H0V3a3 3 0 0 1 3-3zM0 9h25v5H0z"/><path d="M0 9h25v5H0zM0 18h25v2a3 3 0 0 1-3 3H3a3 3 0 0 1-3-3z"/><path d="M0 18h25v2a3 3 0 0 1-3 3H3a3 3 0 0 1-3-3z"/></symbol><symbol viewBox="0 0 10 13" id="phone" xmlns="http://www.w3.org/2000/svg"><path d="M.5 0h1.3a.5.5 0 0 1 .5.5v1.158a.5.5 0 0 1-.5.5H.5a.5.5 0 0 1-.5-.5V.5A.5.5 0 0 1 .5 0zm3.85 0h1.3a.5.5 0 0 1 .5.5v1.158a.5.5 0 0 1-.5.5h-1.3a.5.5 0 0 1-.5-.5V.5a.5.5 0 0 1 .5-.5zM8.2 0h1.3a.5.5 0 0 1 .5.5v1.158a.5.5 0 0 1-.5.5H8.2a.5.5 0 0 1-.5-.5V.5a.5.5 0 0 1 .5-.5zm0 3.614h1.3a.5.5 0 0 1 .5.5v1.158a.5.5 0 0 1-.5.5H8.2a.5.5 0 0 1-.5-.5V4.114a.5.5 0 0 1 .5-.5zm-3.85 0h1.3a.5.5 0 0 1 .5.5v1.158a.5.5 0 0 1-.5.5h-1.3a.5.5 0 0 1-.5-.5V4.114a.5.5 0 0 1 .5-.5zm-3.85 0h1.3a.5.5 0 0 1 .5.5v1.158a.5.5 0 0 1-.5.5H.5a.5.5 0 0 1-.5-.5V4.114a.5.5 0 0 1 .5-.5zm0 3.613h1.3a.5.5 0 0 1 .5.5v1.159a.5.5 0 0 1-.5.5H.5a.5.5 0 0 1-.5-.5V7.728a.5.5 0 0 1 .5-.5zm3.85 0h1.3a.5.5 0 0 1 .5.5v1.159a.5.5 0 0 1-.5.5h-1.3a.5.5 0 0 1-.5-.5V7.728a.5.5 0 0 1 .5-.5zm0 3.615h1.3a.5.5 0 0 1 .5.5V12.5a.5.5 0 0 1-.5.5h-1.3a.5.5 0 0 1-.5-.5v-1.158a.5.5 0 0 1 .5-.5zM8.2 7.227h1.3a.5.5 0 0 1 .5.5v1.159a.5.5 0 0 1-.5.5H8.2a.5.5 0 0 1-.5-.5V7.728a.5.5 0 0 1 .5-.5z"/><path d="M.5 0h1.3a.5.5 0 0 1 .5.5v1.158a.5.5 0 0 1-.5.5H.5a.5.5 0 0 1-.5-.5V.5A.5.5 0 0 1 .5 0zm3.85 0h1.3a.5.5 0 0 1 .5.5v1.158a.5.5 0 0 1-.5.5h-1.3a.5.5 0 0 1-.5-.5V.5a.5.5 0 0 1 .5-.5zM8.2 0h1.3a.5.5 0 0 1 .5.5v1.158a.5.5 0 0 1-.5.5H8.2a.5.5 0 0 1-.5-.5V.5a.5.5 0 0 1 .5-.5zm0 3.614h1.3a.5.5 0 0 1 .5.5v1.158a.5.5 0 0 1-.5.5H8.2a.5.5 0 0 1-.5-.5V4.114a.5.5 0 0 1 .5-.5zm-3.85 0h1.3a.5.5 0 0 1 .5.5v1.158a.5.5 0 0 1-.5.5h-1.3a.5.5 0 0 1-.5-.5V4.114a.5.5 0 0 1 .5-.5zm-3.85 0h1.3a.5.5 0 0 1 .5.5v1.158a.5.5 0 0 1-.5.5H.5a.5.5 0 0 1-.5-.5V4.114a.5.5 0 0 1 .5-.5zm0 3.613h1.3a.5.5 0 0 1 .5.5v1.159a.5.5 0 0 1-.5.5H.5a.5.5 0 0 1-.5-.5V7.728a.5.5 0 0 1 .5-.5zm3.85 0h1.3a.5.5 0 0 1 .5.5v1.159a.5.5 0 0 1-.5.5h-1.3a.5.5 0 0 1-.5-.5V7.728a.5.5 0 0 1 .5-.5zm0 3.615h1.3a.5.5 0 0 1 .5.5V12.5a.5.5 0 0 1-.5.5h-1.3a.5.5 0 0 1-.5-.5v-1.158a.5.5 0 0 1 .5-.5zM8.2 7.227h1.3a.5.5 0 0 1 .5.5v1.159a.5.5 0 0 1-.5.5H8.2a.5.5 0 0 1-.5-.5V7.728a.5.5 0 0 1 .5-.5z"/></symbol><symbol viewBox="0 0 512 512" id="pin" xmlns="http://www.w3.org/2000/svg"><path d="M256 0C153.755 0 70.573 83.182 70.573 185.426c0 126.888 165.939 313.167 173.004 321.035 6.636 7.391 18.222 7.378 24.846 0 7.065-7.868 173.004-194.147 173.004-321.035C441.425 83.182 358.244 0 256 0zm0 278.719c-51.442 0-93.292-41.851-93.292-93.293S204.559 92.134 256 92.134s93.291 41.851 93.291 93.293-41.85 93.292-93.291 93.292z"/></symbol><symbol viewBox="0 0 284.935 284.936" id="right" xmlns="http://www.w3.org/2000/svg"><path d="M222.701 135.9L89.652 2.857C87.748.955 85.557 0 83.084 0c-2.474 0-4.664.955-6.567 2.857L62.244 17.133c-1.906 1.903-2.855 4.089-2.855 6.567 0 2.478.949 4.664 2.855 6.567l112.204 112.204L62.244 254.677c-1.906 1.903-2.855 4.093-2.855 6.564 0 2.477.949 4.667 2.855 6.57l14.274 14.271c1.903 1.905 4.093 2.854 6.567 2.854 2.473 0 4.663-.951 6.567-2.854l133.042-133.044c1.902-1.902 2.854-4.093 2.854-6.567s-.945-4.664-2.847-6.571z"/></symbol><symbol viewBox="0 -80 512 512" id="ruler" xmlns="http://www.w3.org/2000/svg"><path d="M481.941 175.344v38.406H346.504c2.77-12.46 4.18-25.313 4.18-38.406C350.684 78.66 272.027 0 175.344 0S0 78.66 0 175.344c0 37.793 11.738 73.558 34.004 103.789v71.55l477.996.438V175.344zm-421.07 89.469c-20.156-25.754-30.812-56.692-30.812-89.47 0-80.109 65.175-145.284 145.285-145.284s145.281 65.175 145.281 145.285c0 32.777-10.652 63.715-30.809 89.465l-3.195 4.082v51.734H64.063v-51.734zm421.07 56.25h-34.004V295.91H417.88v25.153h-31.793v-44.856h-30.059v44.856H316.68v-41.93c8.164-11.086 14.91-22.922 20.183-35.324h145.078zm0 0"/><path d="M175.344 275.871c55.43 0 100.527-45.094 100.527-100.527S230.773 74.813 175.344 74.813c-55.434 0-100.532 45.097-100.532 100.53 0 55.43 45.098 100.528 100.532 100.528zm0-30.058c-33.7 0-61.934-23.782-68.84-55.442h137.68c-6.907 31.66-35.141 55.442-68.84 55.442zm0-140.942c33.699 0 61.933 23.781 68.84 55.442h-137.68c6.906-31.66 35.14-55.442 68.84-55.442zm0 0"/></symbol><symbol viewBox="0 0 0 0" id="sprite" xmlns="http://www.w3.org/2000/svg"/><symbol viewBox="0 0 348.077 348.077" id="tel" xmlns="http://www.w3.org/2000/svg"><path d="M340.273 275.083l-53.755-53.761c-10.707-10.664-28.438-10.34-39.518.744l-27.082 27.076a792.327 792.327 0 0 1-5.344-2.973c-17.102-9.476-40.509-22.464-65.14-47.113-24.704-24.701-37.704-48.144-47.209-65.257-1.003-1.813-1.964-3.561-2.913-5.221l18.176-18.149 8.936-8.947c11.097-11.1 11.403-28.826.721-39.521L73.39 8.194c-10.682-10.68-28.421-10.356-39.518.744l-15.15 15.237.414.411c-5.08 6.482-9.325 13.958-12.484 22.02C3.74 54.28 1.927 61.603 1.098 68.941-6 127.785 20.89 181.564 93.866 254.541c100.875 100.868 182.167 93.248 185.674 92.876 7.638-.913 14.958-2.738 22.397-5.627 7.992-3.122 15.463-7.361 21.941-12.43l.331.294 15.348-15.029c11.074-11.098 11.393-28.83.716-39.542z"/></symbol><symbol viewBox="0 0 548.358 548.358" id="vk" xmlns="http://www.w3.org/2000/svg"><path d="M545.451 400.298c-.664-1.431-1.283-2.618-1.858-3.569-9.514-17.135-27.695-38.167-54.532-63.102l-.567-.571-.284-.28-.287-.287h-.288c-12.18-11.611-19.893-19.418-23.123-23.415-5.91-7.614-7.234-15.321-4.004-23.13 2.282-5.9 10.854-18.36 25.696-37.397 7.807-10.089 13.99-18.175 18.556-24.267 32.931-43.78 47.208-71.756 42.828-83.939l-1.701-2.847c-1.143-1.714-4.093-3.282-8.846-4.712-4.764-1.427-10.853-1.663-18.278-.712l-82.224.568c-1.332-.472-3.234-.428-5.712.144l-3.713.859-1.431.715-1.136.859c-.952.568-1.999 1.567-3.142 2.995-1.137 1.423-2.088 3.093-2.848 4.996-8.952 23.031-19.13 44.444-30.553 64.238-7.043 11.803-13.511 22.032-19.418 30.693-5.899 8.658-10.848 15.037-14.842 19.126-4 4.093-7.61 7.372-10.852 9.849-3.237 2.478-5.708 3.525-7.419 3.142-1.715-.383-3.33-.763-4.859-1.143-2.663-1.714-4.805-4.045-6.42-6.995-1.622-2.95-2.714-6.663-3.285-11.136-.568-4.476-.904-8.326-1-11.563-.089-3.233-.048-7.806.145-13.706.198-5.903.287-9.897.287-11.991 0-7.234.141-15.085.424-23.555.288-8.47.521-15.181.716-20.125.194-4.949.284-10.185.284-15.705s-.336-9.849-1-12.991a44.442 44.442 0 0 0-2.99-9.137c-1.335-2.95-3.289-5.232-5.853-6.852-2.569-1.618-5.763-2.902-9.564-3.856-10.089-2.283-22.936-3.518-38.547-3.71-35.401-.38-58.148 1.906-68.236 6.855-3.997 2.091-7.614 4.948-10.848 8.562-3.427 4.189-3.905 6.475-1.431 6.851 11.422 1.711 19.508 5.804 24.267 12.275l1.715 3.429c1.334 2.474 2.666 6.854 3.999 13.134 1.331 6.28 2.19 13.227 2.568 20.837.95 13.897.95 25.793 0 35.689-.953 9.9-1.853 17.607-2.712 23.127-.859 5.52-2.143 9.993-3.855 13.418-1.715 3.426-2.856 5.52-3.428 6.28-.571.76-1.047 1.239-1.425 1.427a21.387 21.387 0 0 1-7.71 1.431c-2.667 0-5.901-1.334-9.707-4-3.805-2.666-7.754-6.328-11.847-10.992-4.093-4.665-8.709-11.184-13.85-19.558-5.137-8.374-10.467-18.271-15.987-29.691l-4.567-8.282c-2.855-5.328-6.755-13.086-11.704-23.267-4.952-10.185-9.329-20.037-13.134-29.554-1.521-3.997-3.806-7.04-6.851-9.134l-1.429-.859c-.95-.76-2.475-1.567-4.567-2.427a30.301 30.301 0 0 0-6.567-1.854l-78.229.568c-7.994 0-13.418 1.811-16.274 5.428l-1.143 1.711c-.571.953-.859 2.475-.859 4.57 0 2.094.571 4.664 1.714 7.707 11.42 26.84 23.839 52.725 37.257 77.659 13.418 24.934 25.078 45.019 34.973 60.237 9.897 15.229 19.985 29.602 30.264 43.112 10.279 13.515 17.083 22.176 20.412 25.981 3.333 3.812 5.951 6.662 7.854 8.565l7.139 6.851c4.568 4.569 11.276 10.041 20.127 16.416 8.853 6.379 18.654 12.659 29.408 18.85 10.756 6.181 23.269 11.225 37.546 15.126 14.275 3.905 28.169 5.472 41.684 4.716h32.834c6.659-.575 11.704-2.669 15.133-6.283l1.136-1.431c.764-1.136 1.479-2.901 2.139-5.276.668-2.379 1-5 1-7.851-.195-8.183.428-15.558 1.852-22.124 1.423-6.564 3.045-11.513 4.859-14.846 1.813-3.33 3.859-6.14 6.136-8.418 2.282-2.283 3.908-3.666 4.862-4.142.948-.479 1.705-.804 2.276-.999 4.568-1.522 9.944-.048 16.136 4.429 6.187 4.473 11.99 9.996 17.418 16.56 5.425 6.57 11.943 13.941 19.555 22.124 7.617 8.186 14.277 14.271 19.985 18.274l5.708 3.426c3.812 2.286 8.761 4.38 14.853 6.283 6.081 1.902 11.409 2.378 15.984 1.427l73.087-1.14c7.229 0 12.854-1.197 16.844-3.572 3.998-2.379 6.373-5 7.139-7.851.764-2.854.805-6.092.145-9.712-.677-3.611-1.344-6.136-2.008-7.563z"/></symbol><symbol viewBox="0 0 90 90" id="yt" xmlns="http://www.w3.org/2000/svg"><path d="M90 26.958C90 19.525 83.979 13.5 76.55 13.5h-63.1C6.021 13.5 0 19.525 0 26.958v36.084C0 70.475 6.021 76.5 13.45 76.5h63.1C83.979 76.5 90 70.475 90 63.042V26.958zM36 60.225V26.33l25.702 16.947L36 60.225z"/></symbol></svg>