<?xml version="1.0" encoding="UTF-8" standalone="no"?>
<svg
   xmlns:dc="http://purl.org/dc/elements/1.1/"
   xmlns:cc="http://creativecommons.org/ns#"
   xmlns:rdf="http://www.w3.org/1999/02/22-rdf-syntax-ns#"
   xmlns:svg="http://www.w3.org/2000/svg"
   xmlns="http://www.w3.org/2000/svg"
   viewBox="0 0 670.91864 221.21733"
   height="221.21733"
   width="670.91864"
   xml:space="preserve"
   id="svg2"
   version="1.1"><metadata
     id="metadata8"><rdf:RDF><cc:Work
         rdf:about=""><dc:format>image/svg+xml</dc:format><dc:type
           rdf:resource="http://purl.org/dc/dcmitype/StillImage" /></cc:Work></rdf:RDF></metadata><defs
     id="defs6"><linearGradient
       id="linearGradient30"
       spreadMethod="pad"
       gradientTransform="matrix(53.751274,0,0,-53.751274,3.7632191,86.564087)"
       gradientUnits="userSpaceOnUse"
       y2="0"
       x2="1"
       y1="0"
       x1="0"><stop
         id="stop24"
         offset="0"
         style="stop-opacity:1;stop-color:#4b97cb" /><stop
         id="stop26"
         offset="0.00558659"
         style="stop-opacity:1;stop-color:#4b97cb" /><stop
         id="stop28"
         offset="1"
         style="stop-opacity:1;stop-color:#4779b5" /></linearGradient><linearGradient
       id="linearGradient52"
       spreadMethod="pad"
       gradientTransform="matrix(144.42334,-0.2201444,-0.2201444,-144.42334,20.420862,83.546539)"
       gradientUnits="userSpaceOnUse"
       y2="0"
       x2="1"
       y1="0"
       x1="0"><stop
         id="stop46"
         offset="0"
         style="stop-opacity:1;stop-color:#4b97cb" /><stop
         id="stop48"
         offset="0.00558659"
         style="stop-opacity:1;stop-color:#4b97cb" /><stop
         id="stop50"
         offset="1"
         style="stop-opacity:1;stop-color:#4779b5" /></linearGradient><clipPath
       id="clipPath62"
       clipPathUnits="userSpaceOnUse"><path
         id="path60"
         d="M 0,165.913 H 503.189 V 0 H 0 Z" /></clipPath></defs><g
     transform="matrix(1.3333333,0,0,-1.3333333,0,221.21733)"
     id="g10"><g
       id="g12"><g
         id="g14"><g
           id="g20"><g
             id="g22"><path
               id="path32"
               style="fill:url(#linearGradient30);stroke:none"
               d="m 36.214,117.754 c -2.879,-2.258 -5.196,-5.034 -6.946,-8.329 v 0 L 12.772,120.461 C 7.012,109.379 3.764,96.788 3.764,83.436 v 0 c 0,-11.162 2.269,-21.795 6.369,-31.46 v 0 c 0.508,4.24 1.59,8.271 3.237,12.061 v 0 c 2.362,5.461 5.3,9.93 8.791,13.432 v 0 c 3.502,3.502 7.337,6.843 11.508,10.034 v 0 c 4.17,3.191 7.995,5.886 11.497,8.099 v 0 c 3.501,2.211 6.427,4.584 8.801,7.107 v 0 c 2.36,2.523 3.547,5.011 3.547,7.488 v 0 c 0,3.595 -1.187,6.324 -3.547,8.179 v 0 c -2.374,1.855 -5.15,2.777 -8.341,2.777 v 0 c -3.398,0 -6.532,-1.13 -9.412,-3.399" /></g></g></g></g><g
       id="g34"><g
         id="g36"><g
           id="g42"><g
             id="g44"><path
               id="path54"
               style="fill:url(#linearGradient52);stroke:none"
               d="m 30.477,143.342 c 5.21,2.25 11.121,3.358 17.723,3.348 v 0 c 10.079,-0.015 18.875,-2.931 26.378,-8.761 v 0 c 7.502,-5.828 11.244,-14.198 11.228,-25.095 v 0 c -0.01,-6.382 -1.562,-12.197 -4.658,-17.446 v 0 C 78.053,90.151 74.29,85.86 69.862,82.526 v 0 C 65.434,79.181 61.006,76.158 56.578,73.435 v 0 c -4.439,-2.724 -8.303,-5.391 -11.59,-8.012 v 0 c -3.299,-2.622 -5.054,-5.211 -5.265,-7.791 v 0 L 87.427,57.559 87.391,34.405 20.346,34.507 C 35.04,15.327 58.163,2.954 84.187,2.914 v 0 c 4.251,-0.006 8.421,0.322 12.488,0.949 v 0 c 0.208,0.023 0.415,0.057 0.611,0.103 v 0 c 8.308,1.335 16.191,3.961 23.444,7.648 v 0 l 0.022,14.699 h 0.023 l 0.07,45.998 0.174,8.49 -0.311,0.001 c -0.924,-2.061 -2.38,-4.018 -4.329,-5.857 v 0 l -6.645,-6.015 -15.571,16.693 29.832,27.901 23.316,-0.035 -0.122,-80.35 c 11.022,13.749 17.626,31.203 17.655,50.188 v 0 c 0.067,44.478 -35.934,80.589 -80.411,80.657 v 0 c -0.043,0 -0.086,0 -0.129,0 v 0 c -20.697,0 -39.564,-7.811 -53.827,-20.642" /></g></g></g></g><g
       id="g56"><g
         clip-path="url(#clipPath62)"
         id="g58"><g
           transform="translate(232.1037,79.6632)"
           id="g64"><path
             id="path66"
             style="fill:#3d3c3c;fill-opacity:1;fill-rule:nonzero;stroke:none"
             d="m 0,0 h 13.457 c 3.076,0 5.466,0.917 7.177,2.754 1.707,1.837 2.563,4.122 2.563,6.857 0,2.734 -0.814,4.976 -2.435,6.728 -1.624,1.751 -4.018,2.628 -7.177,2.628 H 0 Z m 0,36.909 h 11.534 c 2.648,0 4.655,0.81 6.024,2.435 1.365,1.622 2.049,3.631 2.049,6.024 0,2.307 -0.703,4.184 -2.113,5.638 -1.411,1.452 -3.525,2.178 -6.344,2.178 H 0 Z m -22.427,-56.133 v 91.632 h 33.705 c 9.397,0 16.937,-2.073 22.619,-6.215 5.682,-4.145 8.523,-10.061 8.523,-17.751 0,-3.93 -0.941,-7.669 -2.82,-11.213 -1.88,-3.546 -4.485,-6.301 -7.817,-8.266 v -0.256 c 4.87,-1.455 8.479,-4.123 10.829,-8.01 2.348,-3.889 3.525,-8.096 3.525,-12.623 0,-9.313 -3.29,-16.193 -9.869,-20.634 -6.58,-4.443 -14.91,-6.664 -24.99,-6.664 z" /></g><g
           transform="translate(321.071,60.4395)"
           id="g68"><path
             id="path70"
             style="fill:#3d3c3c;fill-opacity:1;fill-rule:nonzero;stroke:none"
             d="M 0,0 V 91.631 H 57.414 V 72.408 H 22.427 V 55.749 H 50.364 V 36.525 H 22.427 V 19.224 h 36.78 L 59.207,0 Z" /></g><g
           transform="translate(423.3669,60.4395)"
           id="g72"><path
             id="path74"
             style="fill:#3d3c3c;fill-opacity:1;fill-rule:nonzero;stroke:none"
             d="M 0,0 V 91.631 H 22.428 V 56.26 h 9.227 L 50.622,91.631 H 74.715 L 49.98,47.803 V 47.545 L 76.125,0 H 51.007 L 31.655,37.165 H 22.428 V 0 Z" /></g><g
           transform="translate(210.5261,23.6949)"
           id="g76"><path
             id="path78"
             style="fill:#373535;fill-opacity:1;fill-rule:nonzero;stroke:none"
             d="m 0,0 h 2.324 c 0.678,0 1.216,0.199 1.614,0.597 0.397,0.398 0.597,0.941 0.597,1.63 0,0.677 -0.196,1.21 -0.589,1.597 C 3.553,4.212 3.018,4.406 2.34,4.406 H 0 Z M -1.597,-5.6 V 5.793 h 4.18 c 1.054,0 1.912,-0.325 2.573,-0.976 0.661,-0.651 0.992,-1.515 0.992,-2.59 0,-1.077 -0.333,-1.948 -1,-2.615 -0.667,-0.667 -1.523,-1 -2.565,-1 H 0 V -5.6 Z" /></g><g
           transform="translate(225.1301,18.0953)"
           id="g80"><path
             id="path82"
             style="fill:#373535;fill-opacity:1;fill-rule:nonzero;stroke:none"
             d="M 0,0 V 11.393 H 6.632 V 10.005 H 1.598 V 6.439 H 5.68 V 5.051 H 1.598 V 1.387 H 6.907 V 0 Z" /></g><g
           transform="translate(239.8796,18.0953)"
           id="g84"><path
             id="path86"
             style="fill:#373535;fill-opacity:1;fill-rule:nonzero;stroke:none"
             d="M 0,0 V 11.393 H 1.598 V 6.6 h 1.694 l 2.889,4.793 H 7.939 L 4.615,5.987 V 5.954 L 8.149,0 H 6.326 L 3.292,5.212 H 1.598 V 0 Z" /></g><g
           transform="translate(253.322,19.4347)"
           id="g88"><path
             id="path90"
             style="fill:#373535;fill-opacity:1;fill-rule:nonzero;stroke:none"
             d="M 0,0 C 0.936,0.129 1.603,0.79 2.001,1.985 2.398,3.179 2.598,4.97 2.598,7.358 v 2.695 H 9.247 V -1.339 H 7.649 V 8.666 H 4.115 V 7.342 C 4.115,4.459 3.805,2.292 3.187,0.839 2.568,-0.613 1.506,-1.382 0,-1.469 Z" /></g><g
           transform="translate(272.3474,22.6944)"
           id="g92"><path
             id="path94"
             style="fill:#373535;fill-opacity:1;fill-rule:nonzero;stroke:none"
             d="M 0,0 H 3.453 L 2.195,3.599 1.743,5.228 H 1.71 C 1.549,4.539 1.404,3.997 1.275,3.599 Z M -3.195,-4.599 0.887,6.793 H 2.582 L 6.665,-4.599 H 5.019 l -1.146,3.275 h -4.292 l -1.146,-3.275 z" /></g><g
           transform="translate(285.967,18.0953)"
           id="g96"><path
             id="path98"
             style="fill:#373535;fill-opacity:1;fill-rule:nonzero;stroke:none"
             d="M 0,0 0.936,11.393 H 2.598 L 5.228,5.229 5.777,3.695 h 0.032 c 0.204,0.602 0.393,1.114 0.565,1.534 l 2.63,6.164 h 1.663 L 11.586,0 H 10.005 L 9.456,7.181 9.424,8.859 H 9.392 C 9.155,8.16 8.95,7.6 8.779,7.181 L 6.503,2.049 H 5.083 L 2.824,7.181 2.211,8.891 H 2.178 C 2.2,8.213 2.189,7.643 2.146,7.181 L 1.597,0 Z" /></g><g
           transform="translate(305.7834,18.0953)"
           id="g100"><path
             id="path102"
             style="fill:#373535;fill-opacity:1;fill-rule:nonzero;stroke:none"
             d="M 0,0 V 11.393 H 1.597 V 6.39 h 5.922 v 5.003 H 9.101 V 0 H 7.519 V 5.002 H 1.597 L 1.597,0 Z" /></g><g
           transform="translate(324.6633,22.6944)"
           id="g104"><path
             id="path106"
             style="fill:#373535;fill-opacity:1;fill-rule:nonzero;stroke:none"
             d="M 0,0 H 3.453 L 2.195,3.599 1.743,5.228 H 1.71 C 1.549,4.539 1.404,3.997 1.275,3.599 Z M -3.195,-4.599 0.888,6.793 H 2.582 L 6.664,-4.599 H 5.019 l -1.146,3.275 h -4.292 l -1.146,-3.275 z" /></g><g
           transform="translate(341.9616,23.985)"
           id="g108"><path
             id="path110"
             style="fill:#373535;fill-opacity:1;fill-rule:nonzero;stroke:none"
             d="M 0,0 H 2.194 V 4.116 H 0.388 c -0.667,0 -1.162,-0.087 -1.486,-0.259 -0.613,-0.344 -0.92,-0.919 -0.92,-1.726 0,-0.657 0.181,-1.176 0.541,-1.558 C -1.116,0.191 -0.624,0 0,0 m -4.373,-5.89 2.55,4.244 0.339,0.533 v 0.032 c -0.721,0.258 -1.262,0.672 -1.622,1.243 -0.361,0.57 -0.54,1.248 -0.54,2.032 0,0.722 0.16,1.34 0.483,1.857 0.323,0.516 0.759,0.898 1.308,1.146 0.473,0.203 1.183,0.306 2.129,0.306 H 3.792 V -5.89 H 2.194 v 4.535 H 0.097 L -2.582,-5.89 Z" /></g><g
           transform="translate(369.7341,18.0953)"
           id="g112"><path
             id="path114"
             style="fill:#373535;fill-opacity:1;fill-rule:nonzero;stroke:none"
             d="M 0,0 V 11.393 H 1.598 V 6.6 H 3.292 L 6.18,11.393 H 7.939 L 4.615,5.987 V 5.954 L 8.149,0 H 6.326 L 3.292,5.212 H 1.598 V 0 Z" /></g><g
           transform="translate(385.9353,23.8722)"
           id="g116"><path
             id="path118"
             style="fill:#373535;fill-opacity:1;fill-rule:nonzero;stroke:none"
             d="m 0,0 c 0,-1.269 0.409,-2.338 1.227,-3.203 0.817,-0.866 1.812,-1.299 2.985,-1.299 1.173,0 2.165,0.433 2.977,1.299 C 8.001,-2.338 8.408,-1.269 8.408,0 8.408,1.226 8.001,2.259 7.189,3.098 6.377,3.938 5.385,4.357 4.212,4.357 3.039,4.357 2.044,3.938 1.227,3.098 0.409,2.259 0,1.226 0,0 m -1.646,0 c 0,1.635 0.565,3.013 1.695,4.131 C 1.179,5.25 2.566,5.81 4.212,5.81 5.858,5.81 7.242,5.25 8.367,4.131 9.491,3.013 10.054,1.635 10.054,0 c 0,-1.678 -0.563,-3.093 -1.687,-4.244 -1.125,-1.152 -2.509,-1.727 -4.155,-1.727 -1.646,0 -3.033,0.575 -4.163,1.727 -1.13,1.151 -1.695,2.566 -1.695,4.244" /></g><g
           transform="translate(404.2995,18.0953)"
           id="g120"><path
             id="path122"
             style="fill:#373535;fill-opacity:1;fill-rule:nonzero;stroke:none"
             d="M 0,0 0.937,11.393 H 2.598 L 5.229,5.229 5.777,3.695 h 0.032 c 0.205,0.602 0.393,1.114 0.565,1.534 l 2.631,6.164 h 1.662 L 11.586,0 H 10.005 L 9.456,7.181 9.424,8.859 H 9.392 C 9.155,8.16 8.95,7.6 8.778,7.181 L 6.503,2.049 H 5.083 L 2.824,7.181 2.21,8.891 H 2.178 C 2.2,8.213 2.189,7.643 2.146,7.181 L 1.598,0 Z" /></g><g
           transform="translate(424.9226,18.0953)"
           id="g124"><path
             id="path126"
             style="fill:#373535;fill-opacity:1;fill-rule:nonzero;stroke:none"
             d="M 0,0 V 11.393 H 8.973 V 0 H 7.374 V 10.005 H 1.597 L 1.597,0 Z" /></g><g
           transform="translate(444.4802,22.6944)"
           id="g128"><path
             id="path130"
             style="fill:#373535;fill-opacity:1;fill-rule:nonzero;stroke:none"
             d="M 0,0 H 3.453 L 2.195,3.599 1.743,5.228 H 1.711 C 1.549,4.539 1.404,3.997 1.274,3.599 Z M -3.195,-4.599 0.888,6.793 H 2.582 L 6.664,-4.599 H 5.02 l -1.147,3.275 h -4.292 l -1.145,-3.275 z" /></g><g
           transform="translate(458.5359,18.0953)"
           id="g132"><path
             id="path134"
             style="fill:#373535;fill-opacity:1;fill-rule:nonzero;stroke:none"
             d="M 0,0 V 11.393 H 1.598 V 6.39 H 7.52 v 5.003 H 9.102 V 0 H 7.52 V 5.002 H 1.598 L 1.598,0 Z" /></g><g
           transform="translate(475.4802,18.0953)"
           id="g136"><path
             id="path138"
             style="fill:#373535;fill-opacity:1;fill-rule:nonzero;stroke:none"
             d="M 0,0 V 11.393 H 1.597 V 4.002 L 1.5,2.34 h 0.032 c 0.377,0.71 0.7,1.268 0.969,1.679 l 5.051,7.374 H 9.117 V 0 H 7.536 V 7.391 L 7.633,9.053 H 7.601 C 7.234,8.364 6.917,7.81 6.647,7.391 L 1.564,0 Z" /></g><g
           transform="translate(495.6999,23.985)"
           id="g140"><path
             id="path142"
             style="fill:#373535;fill-opacity:1;fill-rule:nonzero;stroke:none"
             d="M 0,0 H 2.194 V 4.116 H 0.388 c -0.668,0 -1.162,-0.087 -1.486,-0.259 -0.613,-0.344 -0.92,-0.919 -0.92,-1.726 0,-0.657 0.181,-1.176 0.541,-1.558 C -1.117,0.191 -0.624,0 0,0 m -4.373,-5.89 2.55,4.244 0.339,0.533 v 0.032 c -0.722,0.258 -1.262,0.672 -1.622,1.243 -0.361,0.57 -0.54,1.248 -0.54,2.032 0,0.722 0.16,1.34 0.483,1.857 0.323,0.516 0.759,0.898 1.308,1.146 0.472,0.203 1.182,0.306 2.128,0.306 H 3.792 V -5.89 H 2.194 v 4.535 H 0.097 L -2.582,-5.89 Z" /></g></g></g></g></svg>